<?xml version="1.0" encoding="UTF-8" standalone="no"?>
<!-- Created with Inkscape (http://www.inkscape.org/) -->

<svg
   xmlns:dc="http://purl.org/dc/elements/1.1/"
   xmlns:cc="http://creativecommons.org/ns#"
   xmlns:rdf="http://www.w3.org/1999/02/22-rdf-syntax-ns#"
   xmlns:svg="http://www.w3.org/2000/svg"
   xmlns="http://www.w3.org/2000/svg"
   xmlns:sodipodi="http://sodipodi.sourceforge.net/DTD/sodipodi-0.dtd"
   xmlns:inkscape="http://www.inkscape.org/namespaces/inkscape"
   width="140"
   height="140"
   id="svg4141"
   version="1.1"
   inkscape:version="0.48.3.1 r9886"
   sodipodi:docname="logo_color.svg">
  <defs
     id="defs4143" />
  <sodipodi:namedview
     id="base"
     pagecolor="#ffffff"
     bordercolor="#666666"
     borderopacity="1.0"
     inkscape:pageopacity="0.0"
     inkscape:pageshadow="2"
     inkscape:zoom="1.979899"
     inkscape:cx="107.62292"
     inkscape:cy="41.50284"
     inkscape:document-units="px"
     inkscape:current-layer="layer1"
     showgrid="false"
     inkscape:window-width="1920"
     inkscape:window-height="1171"
     inkscape:window-x="0"
     inkscape:window-y="0"
     inkscape:window-maximized="1" />
  <metadata
     id="metadata4146">
    <rdf:RDF>
      <cc:Work
         rdf:about="">
        <dc:format>image/svg+xml</dc:format>
        <dc:type
           rdf:resource="http://purl.org/dc/dcmitype/StillImage" />
        <dc:title></dc:title>
      </cc:Work>
    </rdf:RDF>
  </metadata>
  <g
     inkscape:label="Layer 1"
     inkscape:groupmode="layer"
     id="layer1"
     transform="translate(0,-912.36218)">
    <g
       id="g3757">
      <path
         transform="matrix(2.4142646,0,0,3.2410675,538.04476,963.43261)"
         d="m -169.20054,5.9022508 c 0,10.1815262 -11.08039,18.4352832 -24.74874,18.4352832 -13.66835,0 -24.74874,-8.253757 -24.74874,-18.4352832 0,-10.1815261 11.08039,-18.4352838 24.74874,-18.4352838 13.66835,0 24.74874,8.2537577 24.74874,18.4352838 z"
         sodipodi:ry="18.435284"
         sodipodi:rx="24.748737"
         sodipodi:cy="5.9022508"
         sodipodi:cx="-193.94928"
         id="path2987"
         style="fill:#ffffff;fill-opacity:1;fill-rule:nonzero;stroke:none"
         sodipodi:type="arc" />
      <rect
         ry="0.65508991"
         rx="0.057836071"
         y="912.56219"
         x="-1.6406249e-05"
         height="140"
         width="140"
         id="rect4012-3"
         style="opacity:0;fill:#ffffff;fill-opacity:1;fill-rule:nonzero;stroke:none" />
      <path
         id="path3122-8-7-2-0-9-72-3-6-7"
         d="m 69.7722,922.5629 c -33.0909,0 -59.7723,27.0565 -59.7723,60.221 0,33.1645 26.6814,59.7783 59.7723,59.7783 33.091,0 60.2277,-26.6138 60.2277,-59.7783 0,-11.1492 -3.3873,-21.6063 -8.6698,-30.5532 l -54.2956,66.8631 -4.1071,4.8708 c -2.3493,2.7494 -6.7893,2.7494 -9.1254,0 l -4.1057,-5.7563 -23.7262,-29.6678 c -2.0265,-2.4251 -1.7198,-6.0305 0.9199,-7.9706 l 10.0379,-7.0847 c 2.6793,-1.779 6.3806,-1.2612 8.2129,1.3276 l 14.6007,20.369 53.3845,-53.5791 C 102.2061,930.0573 86.9046,922.5622 69.7795,922.5622 z"
         style="fill:#2ecc71;fill-opacity:1;fill-rule:nonzero;stroke:none"
         inkscape:connector-curvature="0" />
    </g>
  </g>
</svg>
