<?xml version="1.0" encoding="UTF-8" standalone="no"?>
<!-- Created with Inkscape (http://www.inkscape.org/) -->

<svg
   xmlns:dc="http://purl.org/dc/elements/1.1/"
   xmlns:cc="http://creativecommons.org/ns#"
   xmlns:rdf="http://www.w3.org/1999/02/22-rdf-syntax-ns#"
   xmlns:svg="http://www.w3.org/2000/svg"
   xmlns="http://www.w3.org/2000/svg"
   xmlns:sodipodi="http://sodipodi.sourceforge.net/DTD/sodipodi-0.dtd"
   xmlns:inkscape="http://www.inkscape.org/namespaces/inkscape"
   width="760"
   height="150"
   id="svg4258"
   version="1.1"
   inkscape:version="0.48.3.1 r9886"
   sodipodi:docname="wordmark_dark.svg">
  <defs
     id="defs4260" />
  <sodipodi:namedview
     id="base"
     pagecolor="#ffffff"
     bordercolor="#666666"
     borderopacity="1.0"
     inkscape:pageopacity="0.0"
     inkscape:pageshadow="2"
     inkscape:zoom="0.98994949"
     inkscape:cx="368.58078"
     inkscape:cy="101.43213"
     inkscape:document-units="px"
     inkscape:current-layer="layer1"
     showgrid="false"
     inkscape:window-width="1366"
     inkscape:window-height="712"
     inkscape:window-x="1920"
     inkscape:window-y="27"
     inkscape:window-maximized="1" />
  <metadata
     id="metadata4263">
    <rdf:RDF>
      <cc:Work
         rdf:about="">
        <dc:format>image/svg+xml</dc:format>
        <dc:type
           rdf:resource="http://purl.org/dc/dcmitype/StillImage" />
        <dc:title></dc:title>
      </cc:Work>
    </rdf:RDF>
  </metadata>
  <g
     inkscape:label="Layer 1"
     inkscape:groupmode="layer"
     id="layer1"
     transform="translate(0,-902.36218)">
    <g
       id="g4374">
      <path
         inkscape:connector-curvature="0"
         d="m 277.44484,1035.4495 c 14.89923,0 22.34887,-4.765 22.34894,-14.2952 -7e-5,-2.953 -1.47657,-5.1678 -4.42952,-6.6443 -2.95307,-1.6107 -6.71145,-3.0201 -11.27514,-4.2282 -4.42957,-1.208 -9.26177,-2.416 -14.49661,-3.6241 -5.23493,-1.3423 -10.13424,-3.1544 -14.69796,-5.4363 -4.42954,-2.2818 -8.1208,-5.23481 -11.0738,-8.85902 -2.95302,-3.75832 -4.42953,-8.32206 -4.42952,-13.69124 -1e-5,-5.36904 0.80536,-9.9999 2.4161,-13.89259 1.61072,-3.89252 4.02682,-7.24821 7.24831,-10.06709 7.11405,-6.04016 16.97979,-9.06028 29.59725,-9.06039 10.06703,1.1e-4 19.79855,1.67796 29.19457,5.03355 1.87911,0.67124 3.2885,1.74506 4.22818,3.22147 1.07374,1.4766 1.61065,3.15445 1.61073,5.03355 -8e-5,1.74505 -0.80545,3.4229 -2.4161,5.03354 -1.47659,1.61082 -2.95309,2.41619 -4.42952,2.4161 -1.47658,9e-5 -3.28866,-0.33548 -5.43623,-1.00671 -6.44301,-2.01333 -13.48996,-3.02003 -21.14089,-3.02012 -7.65104,9e-5 -13.48995,1.34236 -17.51675,4.02683 -3.89263,2.68464 -5.83894,5.90611 -5.83891,9.66441 -3e-5,3.75845 1.47648,6.57724 4.42952,8.45636 3.08721,1.74503 6.84559,3.22153 11.27515,4.42952 4.42947,1.20811 9.26167,2.41616 14.49661,3.62415 5.36905,1.20811 10.26836,2.88596 14.69795,5.03355 10.46969,5.36913 15.70458,13.69123 15.70467,24.96643 -9e-5,8.5906 -3.22156,15.5704 -9.66441,20.9395 -6.97992,5.906 -16.71144,8.859 -29.19457,8.859 -13.55705,0 -25.77178,-3.0201 -36.64421,-9.0603 -2.28189,-1.6108 -3.42283,-3.6242 -3.42282,-6.0403 -1e-5,-2.4161 0.73825,-4.4295 2.21476,-6.0403 1.4765,-1.7449 3.08723,-2.6174 4.83221,-2.6174 1.74494,0 3.82547,0.5369 6.2416,1.6107 7.78518,3.49 16.30865,5.2349 25.57041,5.2349"
         style="font-size:201.34184264999998959px;font-style:normal;font-variant:normal;font-weight:normal;font-stretch:normal;line-height:125%;letter-spacing:-6.29193258000000011px;word-spacing:0px;fill:#ffffff;fill-opacity:1;stroke:none;font-family:Varela Round;-inkscape-font-specification:Varela Round"
         id="path4303" />
      <path
         inkscape:connector-curvature="0"
         d="m 347.75719,1005.4496 c 1.07379,9.1275 4.4966,16.3758 10.26843,21.7449 5.77176,5.3691 13.82542,8.0537 24.16102,8.0537 10.33548,0 18.99317,-1.745 25.9731,-5.2349 2.41601,-1.208 4.49654,-1.8121 6.2416,-1.8121 1.74486,0 3.42271,0.7383 5.03354,2.2148 1.61064,1.4765 2.416,3.1544 2.41611,5.0335 -1.1e-4,3.49 -1.47661,6.0403 -4.42952,7.651 -2.81889,1.4765 -5.36921,2.7517 -7.65099,3.8255 -2.28197,1.0738 -4.76518,2.0134 -7.44965,2.8188 -6.04033,1.745 -13.02018,2.6174 -20.93955,2.6174 -16.51008,0 -29.32883,-4.6308 -38.4563,-13.8925 -9.12751,-9.2617 -13.69125,-22.4161 -13.69124,-39.46304 -1e-5,-14.765 3.82548,-27.04684 11.47648,-36.84555 8.59056,-11.00659 20.80529,-16.50993 36.64422,-16.51004 15.03345,1.1e-4 26.91261,5.10076 35.63751,15.30198 8.1878,9.53026 12.28174,21.34231 12.28185,35.43617 -1.1e-4,2.55038 -0.87259,4.69798 -2.61745,6.44298 -1.61083,1.745 -3.82559,2.6174 -6.64428,2.6174 l -68.25488,0 m 29.59725,-44.2952 c -11.94633,9e-5 -20.67113,5.30208 -26.17444,15.906 -2.01345,3.75845 -3.15438,8.25508 -3.42281,13.48991 l 59.39584,0 c -0.537,-9.53012 -4.02692,-17.04687 -10.46977,-22.55029 -5.36919,-4.56366 -11.81212,-6.84553 -19.32882,-6.84562"
         style="font-size:201.34184264999998959px;font-style:normal;font-variant:normal;font-weight:normal;font-stretch:normal;line-height:125%;letter-spacing:-6.29193258000000011px;word-spacing:0px;fill:#ffffff;fill-opacity:1;stroke:none;font-family:Varela Round;-inkscape-font-specification:Varela Round"
         id="path4305" />
      <path
         inkscape:connector-curvature="0"
         d="m 445.42056,911.6243 c -2e-5,-2.68441 0.87246,-4.89917 2.61744,-6.64428 1.74494,-1.74481 3.89259,-2.61729 6.44294,-2.61744 2.68453,1.5e-4 4.89929,0.87263 6.64428,2.61744 1.74493,1.74511 2.61741,3.95987 2.61744,6.64428 l 0,130.6708 c -3e-5,2.5504 -0.87251,4.698 -2.61744,6.443 -1.74499,1.745 -3.95975,2.6174 -6.64428,2.6174 -2.55035,0 -4.698,-0.8724 -6.44294,-2.6174 -1.74498,-1.745 -2.61746,-3.8926 -2.61744,-6.443 l 0,-130.6708"
         style="font-size:201.34184264999998959px;font-style:normal;font-variant:normal;font-weight:normal;font-stretch:normal;line-height:125%;letter-spacing:-6.29193258000000011px;word-spacing:0px;fill:#ffffff;fill-opacity:1;stroke:none;font-family:Varela Round;-inkscape-font-specification:Varela Round"
         id="path4307" />
      <path
         inkscape:connector-curvature="0"
         d="m 503.48251,1005.4496 c 1.0738,9.1275 4.49661,16.3758 10.26844,21.7449 5.77175,5.3691 13.82542,8.0537 24.16102,8.0537 10.33547,0 18.99317,-1.745 25.9731,-5.2349 2.41601,-1.208 4.49654,-1.8121 6.24159,-1.8121 1.74487,0 3.42272,0.7383 5.03355,2.2148 1.61063,1.4765 2.416,3.1544 2.4161,5.0335 -1e-4,3.49 -1.4766,6.0403 -4.42952,7.651 -2.81888,1.4765 -5.36921,2.7517 -7.65099,3.8255 -2.28196,1.0738 -4.76517,2.0134 -7.44965,2.8188 -6.04033,1.745 -13.02017,2.6174 -20.93955,2.6174 -16.51007,0 -29.32883,-4.6308 -38.45629,-13.8925 -9.12751,-9.2617 -13.69125,-22.4161 -13.69124,-39.46304 -10e-6,-14.765 3.82548,-27.04684 11.47648,-36.84555 8.59056,-11.00659 20.80528,-16.50993 36.64422,-16.51004 15.03345,1.1e-4 26.9126,5.10076 35.6375,15.30198 8.1878,9.53026 12.28175,21.34231 12.28185,35.43617 -10e-5,2.55038 -0.87258,4.69798 -2.61744,6.44298 -1.61084,1.745 -3.82559,2.6174 -6.64428,2.6174 l -68.25489,0 m 29.59726,-44.2952 c -11.94633,9e-5 -20.67114,5.30208 -26.17444,15.906 -2.01345,3.75845 -3.15439,8.25508 -3.42282,13.48991 l 59.39585,0 c -0.537,-9.53012 -4.02692,-17.04687 -10.46978,-22.55029 -5.36919,-4.56366 -11.81212,-6.84553 -19.32881,-6.84562"
         style="font-size:201.34184264999998959px;font-style:normal;font-variant:normal;font-weight:normal;font-stretch:normal;line-height:125%;letter-spacing:-6.29193258000000011px;word-spacing:0px;fill:#ffffff;fill-opacity:1;stroke:none;font-family:Varela Round;-inkscape-font-specification:Varela Round"
         id="path4309" />
      <path
         inkscape:connector-curvature="0"
         d="m 648.25989,1035.2482 c 7.51669,0 14.69787,-1.8792 21.54358,-5.6376 2.41601,-1.3422 4.56365,-2.0134 6.44294,-2.0134 1.87909,0 3.55694,0.8725 5.03354,2.6174 1.47641,1.745 2.21466,3.8255 2.21476,6.2416 -1e-4,2.4161 -1.54372,4.6309 -4.63086,6.6443 -9.53027,6.1745 -20.26849,9.2617 -32.2147,9.2617 -14.89934,0 -27.44964,-4.6979 -37.65092,-14.0939 -10.73825,-9.9328 -16.10736,-23.02 -16.10735,-39.26164 -1e-5,-16.24151 5.3691,-29.32871 16.10735,-39.26166 10.20128,-9.39585 22.75158,-14.09382 37.65092,-14.09393 8.05361,1.1e-4 14.63077,1.07393 19.73151,3.22147 5.2348,2.01352 9.39586,4.02694 12.48319,6.04026 3.08714,2.01351 4.63076,4.22827 4.63086,6.64428 -1e-4,2.41619 -0.73835,4.49672 -2.21476,6.2416 -1.4766,1.74504 -2.95311,2.61752 -4.42952,2.61744 -2.28196,8e-5 -4.63095,-0.67106 -7.04696,-2.01342 -6.84571,-3.75829 -14.02689,-5.63748 -21.54358,-5.63757 -11.81211,9e-5 -20.9396,3.35578 -27.38249,10.06709 -6.44297,6.57724 -9.66444,15.30205 -9.66441,26.17444 -3e-5,10.87254 3.22144,19.66444 9.66441,26.37574 6.44289,6.5772 15.57038,9.8658 27.38249,9.8658"
         style="font-size:201.34184264999998959px;font-style:normal;font-variant:normal;font-weight:normal;font-stretch:normal;line-height:125%;letter-spacing:-6.29193258000000011px;word-spacing:0px;fill:#ffffff;fill-opacity:1;stroke:none;font-family:Varela Round;-inkscape-font-specification:Varela Round"
         id="path4311" />
      <path
         inkscape:connector-curvature="0"
         d="m 738.44214,1036.2549 c 3.6241,0 6.17443,-0.2684 7.65099,-0.8054 1.61068,-0.6711 3.28852,-1.0067 5.03355,-1.0067 1.87912,0 3.55697,0.6712 5.03355,2.0134 1.47643,1.3423 2.21468,3.3557 2.21476,6.0403 -8e-5,2.6846 -1.34235,4.6309 -4.02684,5.8389 -5.77186,2.6846 -10.73829,4.0268 -14.8993,4.0268 -4.02688,0 -7.71815,-0.2013 -11.0738,-0.604 -3.35574,-0.4027 -6.5772,-1.5436 -9.66441,-3.4228 -7.38256,-4.2953 -11.07382,-11.812 -11.0738,-22.5503 l 0,-62.41594 -14.29527,0 c -2.55033,8e-5 -3.8255,-1.27508 -3.82549,-3.8255 -10e-6,-1.20796 0.60402,-2.34889 1.81207,-3.42281 l 27.38249,-26.77846 c 1.20802,-1.20793 2.34896,-1.81196 3.42281,-1.81208 1.07379,1.2e-4 1.94627,0.4028 2.61745,1.20805 0.80533,0.80549 1.20801,1.74508 1.20805,2.81879 l 0,16.10734 22.75163,0 c 2.28181,1.1e-4 4.16099,0.73836 5.63757,2.21476 1.47644,1.47661 2.21469,3.3558 2.21476,5.63757 -7e-5,2.28197 -0.73832,4.16116 -2.21476,5.63758 -1.47658,1.47659 -3.35576,2.21484 -5.63757,2.21476 l -22.75163,0 0,60.80524 c -4e-5,5.1007 1.54358,8.5906 4.63086,10.4698 1.74492,1.0738 4.36236,1.6107 7.85233,1.6107"
         style="font-size:201.34184264999998959px;font-style:normal;font-variant:normal;font-weight:normal;font-stretch:normal;line-height:125%;letter-spacing:-6.29193258000000011px;word-spacing:0px;fill:#ffffff;fill-opacity:1;stroke:none;font-family:Varela Round;-inkscape-font-specification:Varela Round"
         id="path4313" />
      <g
         transform="matrix(12.583865,0,0,12.583865,17171.68,4511.197)"
         style="font-size:16px;font-style:normal;font-variant:normal;font-weight:normal;font-stretch:normal;line-height:125%;letter-spacing:0px;word-spacing:0px;fill:#2ecc71;fill-opacity:1;stroke:none;font-family:Raleway;-inkscape-font-specification:Raleway"
         id="text2985-0-6-2-2-3-8-1">
        <path
           inkscape:connector-curvature="0"
           d="m -1357.842,-276.07871 c -0.7894,0.81067 -1.7014,1.216 -2.736,1.216 -1.024,0 -1.9094,-0.36266 -2.656,-1.088 -0.8107,-0.79999 -1.216,-1.85066 -1.216,-3.152 0,-1.27999 0.4053,-2.32532 1.216,-3.136 0.736,-0.73599 1.6213,-1.10399 2.656,-1.104 1.0346,1e-5 1.9466,0.40535 2.736,1.216 l 0,-3.92 c 0,-0.21332 0.069,-0.38932 0.208,-0.528 0.1386,-0.13865 0.3093,-0.20798 0.512,-0.208 0.2133,2e-5 0.3893,0.0693 0.528,0.208 0.1386,0.13868 0.208,0.31468 0.208,0.528 l 0,10.384 c 0,0.20267 -0.069,0.37334 -0.208,0.512 -0.1387,0.13867 -0.3147,0.208 -0.528,0.208 -0.2027,0 -0.3734,-0.0693 -0.512,-0.208 -0.1387,-0.13866 -0.208,-0.30933 -0.208,-0.512 l 0,-0.416 m 0,-4.704 c -0.7254,-0.79999 -1.568,-1.19999 -2.528,-1.2 -1.216,10e-6 -2.0214,0.54401 -2.416,1.632 -0.1387,0.36268 -0.208,0.77868 -0.208,1.248 0,0.91734 0.2506,1.63734 0.752,2.16 0.4586,0.48001 1.0826,0.72001 1.872,0.72 0.96,1e-5 1.8026,-0.39999 2.528,-1.2 l 0,-3.36"
           style="letter-spacing:-0.5px;fill:#2ecc71;font-family:Varela Round;-inkscape-font-specification:Varela Round"
           id="path4316" />
      </g>
      <path
         id="path3122-8-7-2-0-9-72-3-1"
         d="m 174.03442,945.67248 c -28.52007,0 -51.51583,24.02852 -51.51583,53.48143 0,29.45289 22.99576,53.08819 51.51583,53.08819 28.52007,0 51.90844,-23.6353 51.90844,-53.08819 0,-9.90149 -2.91946,-19.18825 -7.4723,-27.13396 l -46.79562,59.38015 -3.53984,4.3257 c -2.02474,2.4417 -5.85149,2.4417 -7.86491,0 l -3.53859,-5.1122 -20.44878,-26.3475 c -1.74664,-2.1536 -1.48238,-5.35556 0.79279,-7.07842 l 8.6514,-6.29193 c 2.30914,-1.5799 5.49915,-1.11996 7.07843,1.17911 l 12.58386,18.08934 46.01039,-47.58278 c -9.41147,-10.25333 -22.59936,-16.90956 -37.35898,-16.90956 z"
         style="fill:#2ecc71;fill-opacity:1;fill-rule:nonzero;stroke:none"
         inkscape:connector-curvature="0" />
    </g>
  </g>
</svg>
